<svg xmlns="http://www.w3.org/2000/svg" width="256" height="256" viewBox="0 0 100 100"><path d="M30.55 33.70L30.55 33.70Q27.35 33.70 24.65 34.75Q21.95 35.80 20 37.90Q18.05 40.00 16.90 43.05Q15.75 46.10 15.75 50.10L15.75 50.10Q15.75 58.00 19.85 62.15Q23.95 66.30 30.55 66.30L30.55 66.30Q34.35 66.30 37.05 65.30Q39.75 64.30 41.75 62.90L41.75 62.90Q43.05 63.70 43.85 64.80Q44.65 65.90 44.65 67.50L44.65 67.50Q44.65 70.60 40.60 72.70Q36.55 74.80 29.95 74.80L29.95 74.80Q24.45 74.80 19.90 73.30Q15.35 71.80 12.05 68.70Q8.75 65.60 6.90 60.95Q5.05 56.30 5.05 50.10L5.05 50.10Q5.05 43.90 7.00 39.20Q8.95 34.50 12.30 31.40Q15.65 28.30 20.15 26.75Q24.65 25.20 29.65 25.20L29.65 25.20Q32.95 25.20 35.60 25.80Q38.25 26.40 40.15 27.45Q42.05 28.50 43.10 29.85Q44.15 31.20 44.15 32.70L44.15 32.70Q44.15 34.10 43.40 35.25Q42.65 36.40 41.55 37.00L41.55 37.00Q39.45 35.70 36.90 34.70Q34.35 33.70 30.55 33.70ZM55.35 63.90L55.35 63.90Q58.25 60.20 61.25 56.65Q64.25 53.10 67.15 49.50L67.15 49.50Q63.35 44.70 59.80 40.30Q56.25 35.90 52.45 31.30L52.45 31.30Q52.95 28.80 54.40 27.30Q55.85 25.80 58.05 25.80L58.05 25.80Q60.15 25.80 61.35 26.90Q62.55 28 63.95 29.80L63.95 29.80Q66.25 32.90 68.70 36.35Q71.15 39.80 73.75 43.20L73.75 43.20Q77.15 38.80 80.25 34.75Q83.35 30.70 86.65 25.90L86.65 25.90Q87.15 25.80 87.95 25.80L87.95 25.80Q90.75 25.80 92.35 27.10Q93.95 28.40 93.95 30.40L93.95 30.40Q93.95 31.90 93.30 33.15Q92.65 34.40 91.05 36.40L91.05 36.40Q88.35 39.70 85.50 43Q82.65 46.30 79.95 49.60L79.95 49.60L94.95 68.90Q94.65 71.30 93.15 72.70Q91.65 74.10 89.35 74.10L89.35 74.10Q87.15 74.10 85.80 72.90Q84.45 71.70 82.75 69.60L82.75 69.60Q80.45 66.40 78 62.95Q75.55 59.50 73.25 56.20L73.25 56.20Q69.95 60.60 66.65 65.05Q63.35 69.50 60.25 74L60.25 74L58.65 74Q55.55 74 54 72.70Q52.45 71.40 52.45 69.50L52.45 69.50Q52.45 68.20 53.05 67.05Q53.65 65.90 55.35 63.90Z" fill="#4878b2"></path></svg>